<svg id="Layer_1" data-name="Layer 1" xmlns="http://www.w3.org/2000/svg" viewBox="0 0 647 122.28"><defs><style>.cls-1{fill:#fff;}.cls-2{fill:#54a191;}.cls-3{fill:#cacccf;}</style></defs><path class="cls-1" d="M-23,432.28V310H624V432.28Zm518.89-53.16v.14h18.57c2.37,0,3.36-.77,3.16-3.09a46.24,46.24,0,0,0-1.49-9.09A24.21,24.21,0,0,0,505.54,353a25.44,25.44,0,0,0-17.14-4,25,25,0,0,0-16.14,8.3c-6.83,7.8-8.87,16.93-5.73,27,1.85,6,5.2,10.91,10.44,14.17,10.74,6.69,24.92,6,34.78-4.87a7.91,7.91,0,0,0,1.75-3,2.27,2.27,0,0,0-.89-2,15,15,0,0,0-4.86-1.13,4.54,4.54,0,0,0-2.65,1.36c-1.58,1.38-2.82,3.26-4.56,4.34a16.87,16.87,0,0,1-20.35-2.42,17.91,17.91,0,0,1-4.95-9.25c-.4-1.82.19-2.45,1.9-2.45C483.39,379.13,489.64,379.12,495.89,379.12Zm-205.62-2.49a25.24,25.24,0,0,0,3.62,13.47,24.26,24.26,0,0,0,8.3,8.72c5.09,3.15,10.64,4.14,16.62,3.78A22,22,0,0,0,331.27,398c7.26-5.7,11.3-13.22,11-22.75-.39-13.1-9-23.52-21.89-26.05-8-1.56-15.15.94-21.17,6.14C293.06,360.65,290.15,367.67,290.27,376.63Zm-99.41,25.8a78,78,0,0,0,7.8-1.16,22.58,22.58,0,0,0,13.86-10c.56-.87.43-1.63-.6-2a19.41,19.41,0,0,0-4-1.28,3.62,3.62,0,0,0-2.46.92c-1.25,1.07-2.13,2.63-3.46,3.56-5.42,3.78-11.21,4.91-17.48,2-5.79-2.67-8.69-7.43-10-13.38-.43-1.86.14-2.54,2-2.53q18.66.11,37.31.24c2.1,0,3.19-.85,3.09-2.79-.43-8.66-3.13-16.28-10.39-21.65a23.85,23.85,0,0,0-16.51-4.93c-8.43.75-15.63,4.23-20.39,11.65-5.35,8.36-6.11,17.4-2,26.21C171.94,396.86,179.8,402.26,190.86,402.43Zm229-42.55-.92-.68a9.64,9.64,0,0,1-.15-1.41c0-1.87,0-3.74.11-5.6.06-1.61-.63-2.43-2.27-2.42l-4.06,0c-1.45,0-2.12.71-2,2.19a32.72,32.72,0,0,1,.15,3.28q-.12,22.23-.28,44.47c0,1.65.76,2.32,2.42,2.15a20.44,20.44,0,0,1,3.67,0c3,.24,3.17.13,3.16-2.89q0-13.44,0-26.89a6.45,6.45,0,0,1,.44-2.63c3.05-6.66,7.95-11.06,15.46-11.78a8.66,8.66,0,0,1,6.86,1.86,10.3,10.3,0,0,1,3.42,6.91,78.5,78.5,0,0,1,.48,8.68c.05,8,0,16,0,24,0,2.44.57,2.94,3,2.8a25.66,25.66,0,0,1,3.28.07c2.39.18,3.07-.37,3.07-2.74,0-9.8.11-19.6-.1-29.4-.1-4.28-.31-8.66-2.29-12.65-2.12-4.29-5.36-7.55-10.15-8.08a24.75,24.75,0,0,0-22.5,9A7.17,7.17,0,0,0,419.84,359.88Zm-59-.24c0-2.86-.05-5.2,0-7.53.05-1.63-.58-2.42-2.26-2.35-1.28.06-2.57.05-3.86,0-1.7,0-2.3.8-2.2,2.41s.15,3.09.15,4.63q-.12,21.38-.26,42.73c0,1.84.58,2.42,2.42,2.33a26.79,26.79,0,0,1,3.47,0c3,.21,3.29,0,3.29-3.1,0-8.13.12-16.25-.08-24.37a13.65,13.65,0,0,1,2.59-8.68c3.47-4.84,8.07-7.95,14.19-8.09a9.28,9.28,0,0,1,5,1.12,9.91,9.91,0,0,1,4.6,8.29c.17,3.67.42,7.34.45,11,.06,7,0,13.92,0,20.89,0,2.59.61,3.12,3.25,2.95a18.86,18.86,0,0,1,2.71,0c2.93.25,3.42-.13,3.37-3.14-.21-11.52-.41-23.05-.72-34.57a16.85,16.85,0,0,0-3.59-10,14.45,14.45,0,0,0-4.16-3.67c-4.54-2.56-9.5-1.94-14.11-.61a22.93,22.93,0,0,0-12.61,8.44A11.11,11.11,0,0,1,360.86,359.64ZM97.48,402.1a20.12,20.12,0,0,0,10.28-2A25,25,0,0,0,122.58,381c1.68-9.09-.92-16.92-6.86-23.74-4-4.64-9.36-6.72-15.4-7.52a24,24,0,0,0-19.09,5.39c-6.49,5.28-9.49,12.3-9.78,20.58-.13,3.63,1,6.94,2,10.35,1.43,4.85,4.66,8.39,8.38,11.26A22.57,22.57,0,0,0,97.48,402.1ZM532.67,374a56,56,0,0,1,2.05-7.1c4.84-11.81,21.41-12.77,27-3.6a2.09,2.09,0,0,0,2.82.88,46.36,46.36,0,0,1,4.65-1.29c2.17-.49,2.56-1.22,1.29-3a24.29,24.29,0,0,0-11.35-9.24c-6.93-2.65-13.9-2.66-20.48.56C528.05,356.39,523,365.38,523.43,377c.54,13.64,10.88,25.43,24.53,25.63,6.56.1,12.77-.76,17.83-5.35A45.41,45.41,0,0,0,571,391.4c1-1.25.7-2.39-1.16-2.78a32.42,32.42,0,0,1-4.26-1.26c-1.79-.63-3-.34-4,1.5a7.13,7.13,0,0,1-2.21,2.4c-6.37,4.56-13.8,4.58-20-.43C534.56,386.86,533.1,381.33,532.67,374ZM583.78,376h0c0,5.28-.11,10.57,0,15.86a10,10,0,0,0,5.72,9.17c4.63,2.42,9.38,1.81,13.9.19,4.7-1.68,5.83-.57,3.7-6.9-.1-.3-.16-.62-.24-.94a1.34,1.34,0,0,0-2-1.07,20.55,20.55,0,0,1-2.53,1c-2.68.6-5.61,1.74-7.65-1.05a9,9,0,0,1-1.57-4.77c-.15-7.28,0-14.57,0-21.86,0-2.06,0-4.13,0-6.19,0-1,.24-2,1.52-2.05a37.46,37.46,0,0,1,4.62.07c5.25.48,5.9-.14,5.41-5.37,0-.06,0-.13,0-.19a2,2,0,0,0-2.27-2.05c-2.13.05-4.25,0-6.38,0-2.56,0-2.88-.31-2.88-2.89,0-3.87,0-7.74,0-11.61,0-2.42-.57-3-3-2.95l-3.48,0c-2.49,0-2.92.44-2.91,2.93,0,4,0,8,0,12,0,2.23-.38,2.54-2.64,2.51-3.41-.05-4.71-.61-4.45,4.05.18,3.28.63,3.95,4,3.51,2.61-.34,3.12.07,3.13,2.71C583.79,365.38,583.78,370.67,583.78,376ZM257.16,402.44c5.67,0,14.21-2.86,18.8-6.36a26.66,26.66,0,0,0,7.35-8.35c.66-1.18.73-2.24-.58-3a51.18,51.18,0,0,0-5.15-2.66,1.93,1.93,0,0,0-1.81.57,17.68,17.68,0,0,1-6.52,7.2c-7.28,4.89-15,5.2-22.51,1.35-7.35-3.77-11.79-10.19-13.35-18.43-.4-2.11-1.28-2.78-3.48-2.72-1.47.05-2.95.09-4.43,0s-1.85.69-1.58,1.93c.2,1,.59,1.85.78,2.79a33.93,33.93,0,0,0,10.91,19.1A31.16,31.16,0,0,0,257.16,402.44Zm-.38-71.53c-4.36.29-9.46.81-14.29,3.29-11,5.61-16.57,14.86-18.87,26.53-.28,1.41.36,2.22,1.91,2.16,1.15,0,2.31,0,3.47,0,3.52.13,3.75-.25,4.58-3.67,1.71-7.09,5.32-12.88,11.79-16.71a21.72,21.72,0,0,1,11.05-3,19.09,19.09,0,0,1,12.6,4,39.44,39.44,0,0,1,5.48,6.17c.68.86,1.22,1.57,2.33.88a31.25,31.25,0,0,0,4.61-3.15,2.85,2.85,0,0,0,.49-2.65,26.84,26.84,0,0,0-9.57-9.88C268,332.11,262.93,330.85,256.78,330.91ZM38.44,402.19l.08-.36c1.35-.1,2.7-.17,4-.3A30,30,0,0,0,56,396.37,21.85,21.85,0,0,0,64,387.7c.6-1.25.5-2.26-.76-3s-2.63-1.35-4-2a1.53,1.53,0,0,0-2.27.65,22,22,0,0,1-12.65,9.84,20.87,20.87,0,0,1-11.66.33c-6.92-2-12.61-5.87-15.56-12.83a83.72,83.72,0,0,1-2.92-8.13c-.38-1.25-.88-1.91-2.22-1.87-1.68.05-3.36.05-5,0-1.52,0-2,.75-1.61,2.07,1.13,3.48,2,7.12,3.61,10.36a33.29,33.29,0,0,0,18.72,16.95C31.1,401.34,34.86,401.53,38.44,402.19ZM9,362.27v0h2.9c1.29,0,1.91-.6,2.22-1.91,2.22-9.41,6.73-16.9,16.6-20.06a21.38,21.38,0,0,1,14.17.11,19,19,0,0,1,10.59,8.55c.79,1.42,1.87,1.62,3.22.73,1.07-.72,2.14-1.44,3.26-2.08,1.33-.77,1.36-1.77.6-2.91a30.29,30.29,0,0,1-1.79-2.51c-1.73-3.29-4.76-5.46-7.72-7.08a30,30,0,0,0-18.86-3.49,32.83,32.83,0,0,0-22.74,13.49,37.2,37.2,0,0,0-6.22,14.83c-.4,1.89.14,2.46,2,2.37C7.88,362.25,8.47,362.27,9,362.27Zm133.39-1.39-.87-.25c.07-1.62.17-3.23.21-4.85.18-6.6,0-5.47-4.88-5.51-2.62,0-2.83.21-2.83,2.89,0,14.24,0,28.48,0,42.72,0,5.89-1,5.45,5.48,5.45,2.58,0,3-.46,3-3.05,0-8.44.08-16.88,0-25.32a10.67,10.67,0,0,1,2-7c3.1-4.15,7-7,12.19-7.68,4-.56,4-.53,4-4.65,0-.71,0-1.41,0-2.12-.07-1.47-.76-2-2.28-1.76a20.81,20.81,0,0,0-14.65,9.41C143.38,359.78,142.88,360.31,142.43,360.88Z" transform="translate(23 -310)"/><path class="cls-2" d="M495.89,379.12c-6.25,0-12.5,0-18.75,0-1.71,0-2.3.63-1.9,2.45a17.91,17.91,0,0,0,4.95,9.25,16.87,16.87,0,0,0,20.35,2.42c1.74-1.08,3-3,4.56-4.34a4.54,4.54,0,0,1,2.65-1.36,15,15,0,0,1,4.86,1.13,2.27,2.27,0,0,1,.89,2,7.91,7.91,0,0,1-1.75,3c-9.86,10.86-24,11.56-34.78,4.87-5.24-3.26-8.59-8.21-10.44-14.17-3.14-10.11-1.1-19.24,5.73-27A25,25,0,0,1,488.4,349a25.44,25.44,0,0,1,17.14,4,24.21,24.21,0,0,1,10.59,14.05,46.24,46.24,0,0,1,1.49,9.09c.2,2.32-.79,3.09-3.16,3.09H495.89Zm-3.92-7.2V372c5,0,9.92,0,14.88,0,1.55,0,2-.71,1.69-2a18.3,18.3,0,0,0-5.39-9.42,16.16,16.16,0,0,0-14.09-4.22c-7.5,1.18-12.24,5.7-13.89,12.9-.47,2,.05,2.61,2.11,2.63C482.18,372,487.08,371.92,492,371.92Z" transform="translate(23 -310)"/><path class="cls-2" d="M290.27,376.63c-.12-9,2.79-16,9-21.31,6-5.2,13.19-7.7,21.17-6.14,12.88,2.53,21.5,12.95,21.89,26.05.28,9.53-3.76,17-11,22.75a22,22,0,0,1-12.46,4.62c-6,.36-11.53-.63-16.62-3.78a24.26,24.26,0,0,1-8.3-8.72A25.24,25.24,0,0,1,290.27,376.63Zm26.31-19.51c-5,.22-9.28,1.88-12.63,5.89-2.87,3.44-4,7.4-4.47,11.71-.76,6.34,2.84,15.13,9.75,18.26a16.1,16.1,0,0,0,20.53-5.88c4.19-6.74,4.27-13.85.87-20.82C327.87,360.62,323.09,357.46,316.58,357.12Z" transform="translate(23 -310)"/><path class="cls-3" d="M190.86,402.43c-11.06-.17-18.92-5.57-23.36-15.19-4.07-8.81-3.31-17.85,2-26.21,4.76-7.42,12-10.9,20.39-11.65a23.85,23.85,0,0,1,16.51,4.93c7.26,5.37,10,13,10.39,21.65.1,1.94-1,2.81-3.09,2.79q-18.65-.13-37.31-.24c-1.86,0-2.43.67-2,2.53,1.35,5.95,4.25,10.71,10,13.38,6.27,2.9,12.06,1.77,17.48-2,1.33-.93,2.21-2.49,3.46-3.56a3.62,3.62,0,0,1,2.46-.92,19.41,19.41,0,0,1,4,1.28c1,.38,1.16,1.14.6,2a22.58,22.58,0,0,1-13.86,10A78,78,0,0,1,190.86,402.43Zm15.65-29.9c1.67,0,2.28-.79,1.89-2.52-1.61-7.09-5.81-11.88-12.86-13.77-10-2.68-19.23,3.61-21.43,14-.36,1.66.32,2.34,1.88,2.33Z" transform="translate(23 -310)"/><path class="cls-2" d="M419.84,359.88a7.17,7.17,0,0,1,.79-1.8,24.75,24.75,0,0,1,22.5-9c4.79.53,8,3.79,10.15,8.08,2,4,2.19,8.37,2.29,12.65.21,9.8.1,19.6.1,29.4,0,2.37-.68,2.92-3.07,2.74a25.66,25.66,0,0,0-3.28-.07c-2.42.14-3-.36-3-2.8,0-8,.06-16,0-24a78.5,78.5,0,0,0-.48-8.68,10.3,10.3,0,0,0-3.42-6.91,8.66,8.66,0,0,0-6.86-1.86c-7.51.72-12.41,5.12-15.46,11.78a6.45,6.45,0,0,0-.44,2.63q0,13.44,0,26.89c0,3-.13,3.13-3.16,2.89a20.44,20.44,0,0,0-3.67,0c-1.66.17-2.43-.5-2.42-2.15q.15-22.23.28-44.47a32.72,32.72,0,0,0-.15-3.28c-.13-1.48.54-2.18,2-2.19l4.06,0c1.64,0,2.33.81,2.27,2.42-.07,1.86-.09,3.73-.11,5.6a9.64,9.64,0,0,0,.15,1.41Z" transform="translate(23 -310)"/><path class="cls-2" d="M360.86,359.64a11.11,11.11,0,0,0,1.6-1.32,22.93,22.93,0,0,1,12.61-8.44c4.61-1.33,9.57-1.95,14.11.61a14.45,14.45,0,0,1,4.16,3.67,16.85,16.85,0,0,1,3.59,10c.31,11.52.51,23.05.72,34.57.05,3-.44,3.39-3.37,3.14a18.86,18.86,0,0,0-2.71,0c-2.64.17-3.26-.36-3.25-2.95,0-7,.07-13.93,0-20.89,0-3.67-.28-7.34-.45-11a9.91,9.91,0,0,0-4.6-8.29,9.28,9.28,0,0,0-5-1.12c-6.12.14-10.72,3.25-14.19,8.09a13.65,13.65,0,0,0-2.59,8.68c.2,8.12.07,16.24.08,24.37,0,3.07-.29,3.31-3.29,3.1a26.79,26.79,0,0,0-3.47,0c-1.84.09-2.44-.49-2.42-2.33q.13-21.36.26-42.73c0-1.54-.05-3.09-.15-4.63s.5-2.46,2.2-2.41c1.29,0,2.58.05,3.86,0,1.68-.07,2.31.72,2.26,2.35C360.81,354.44,360.86,356.78,360.86,359.64Z" transform="translate(23 -310)"/><path class="cls-3" d="M97.48,402.1a22.57,22.57,0,0,1-15.6-4.81c-3.72-2.87-6.95-6.41-8.38-11.26-1-3.41-2.18-6.72-2-10.35.29-8.28,3.29-15.3,9.78-20.58a24,24,0,0,1,19.09-5.39c6,.8,11.36,2.88,15.4,7.52,5.94,6.82,8.54,14.65,6.86,23.74a25,25,0,0,1-14.82,19.18A20.12,20.12,0,0,1,97.48,402.1Zm-17.23-24a17.61,17.61,0,0,0,5.18,11.77,16,16,0,0,0,13.82,5.09c8-1,12.79-6.6,14.47-13.52,1.74-7.16.78-14.23-5.06-19.78-6.13-5.81-13.3-6.65-20-2.17C82.83,363.38,80.24,369.14,80.25,378.07Z" transform="translate(23 -310)"/><path class="cls-2" d="M532.67,374c.43,7.29,1.89,12.82,6.78,16.79,6.19,5,13.62,5,20,.43a7.13,7.13,0,0,0,2.21-2.4c.92-1.84,2.18-2.13,4-1.5a32.42,32.42,0,0,0,4.26,1.26c1.86.39,2.13,1.53,1.16,2.78a45.41,45.41,0,0,1-5.25,5.83c-5.06,4.59-11.27,5.45-17.83,5.35-13.65-.2-24-12-24.53-25.63-.45-11.57,4.62-20.56,15.18-25.73,6.58-3.22,13.55-3.21,20.48-.56a24.29,24.29,0,0,1,11.35,9.24c1.27,1.81.88,2.54-1.29,3a46.36,46.36,0,0,0-4.65,1.29,2.09,2.09,0,0,1-2.82-.88c-5.55-9.17-22.12-8.21-27,3.6A56,56,0,0,0,532.67,374Z" transform="translate(23 -310)"/><path class="cls-2" d="M583.78,376c0-5.29,0-10.58,0-15.86,0-2.64-.52-3.05-3.13-2.71-3.35.44-3.8-.23-4-3.51-.26-4.66,1-4.1,4.45-4.05,2.26,0,2.63-.28,2.64-2.51,0-4,0-8,0-12,0-2.49.42-2.92,2.91-2.93l3.48,0c2.38,0,3,.53,3,2.95,0,3.87,0,7.74,0,11.61,0,2.58.32,2.9,2.88,2.89,2.13,0,4.25,0,6.38,0a2,2,0,0,1,2.27,2.05c0,.06,0,.13,0,.19.49,5.23-.16,5.85-5.41,5.37a37.46,37.46,0,0,0-4.62-.07c-1.28,0-1.51,1-1.52,2.05,0,2.06,0,4.13,0,6.19,0,7.29-.1,14.58,0,21.86a9,9,0,0,0,1.57,4.77c2,2.79,5,1.65,7.65,1.05a20.55,20.55,0,0,0,2.53-1,1.34,1.34,0,0,1,2,1.07c.08.32.14.64.24.94,2.13,6.33,1,5.22-3.7,6.9-4.52,1.62-9.27,2.23-13.9-.19a10,10,0,0,1-5.72-9.17c-.15-5.29,0-10.58,0-15.86Z" transform="translate(23 -310)"/><path class="cls-2" d="M257.16,402.44a31.16,31.16,0,0,1-21.57-8.52,33.93,33.93,0,0,1-10.91-19.1c-.19-.94-.58-1.84-.78-2.79-.27-1.24.12-2,1.58-1.93s3,0,4.43,0c2.2-.06,3.08.61,3.48,2.72,1.56,8.24,6,14.66,13.35,18.43,7.52,3.85,15.23,3.54,22.51-1.35a17.68,17.68,0,0,0,6.52-7.2,1.93,1.93,0,0,1,1.81-.57,51.18,51.18,0,0,1,5.15,2.66c1.31.73,1.24,1.79.58,3a26.66,26.66,0,0,1-7.35,8.35C271.37,399.58,262.83,402.42,257.16,402.44Z" transform="translate(23 -310)"/><path class="cls-2" d="M256.78,330.91c6.15-.06,11.2,1.2,15.58,4a26.84,26.84,0,0,1,9.57,9.88,2.85,2.85,0,0,1-.49,2.65,31.25,31.25,0,0,1-4.61,3.15c-1.11.69-1.65,0-2.33-.88a39.44,39.44,0,0,0-5.48-6.17,19.09,19.09,0,0,0-12.6-4,21.72,21.72,0,0,0-11.05,3c-6.47,3.83-10.08,9.62-11.79,16.71-.83,3.42-1.06,3.8-4.58,3.67-1.16,0-2.32-.07-3.47,0-1.55.06-2.19-.75-1.91-2.16,2.3-11.67,7.92-20.92,18.87-26.53C247.32,331.72,252.42,331.2,256.78,330.91Z" transform="translate(23 -310)"/><path class="cls-3" d="M38.44,402.19c-3.58-.66-7.34-.85-10.71-2.08A33.29,33.29,0,0,1,9,383.16c-1.62-3.24-2.48-6.88-3.61-10.36-.43-1.32.09-2.11,1.61-2.07,1.67,0,3.35,0,5,0,1.34,0,1.84.62,2.22,1.87a83.72,83.72,0,0,0,2.92,8.13c2.95,7,8.64,10.81,15.56,12.83a20.87,20.87,0,0,0,11.66-.33,22,22,0,0,0,12.65-9.84,1.53,1.53,0,0,1,2.27-.65c1.32.67,2.66,1.31,4,2s1.36,1.71.76,3A21.85,21.85,0,0,1,56,396.37a30,30,0,0,1-13.4,5.16c-1.34.13-2.69.2-4,.3Z" transform="translate(23 -310)"/><path class="cls-3" d="M9,362.27c-.57,0-1.16,0-1.73,0-1.9.09-2.44-.48-2-2.37a37.2,37.2,0,0,1,6.22-14.83,32.83,32.83,0,0,1,22.74-13.49,30,30,0,0,1,18.86,3.49c3,1.62,6,3.79,7.72,7.08a30.29,30.29,0,0,0,1.79,2.51c.76,1.14.73,2.14-.6,2.91-1.12.64-2.19,1.36-3.26,2.08-1.35.89-2.43.69-3.22-.73a19,19,0,0,0-10.59-8.55,21.38,21.38,0,0,0-14.17-.11c-9.87,3.16-14.38,10.65-16.6,20.06-.31,1.31-.93,1.91-2.22,1.91H9Z" transform="translate(23 -310)"/><path class="cls-3" d="M142.43,360.88c.45-.57.95-1.1,1.35-1.7a20.81,20.81,0,0,1,14.65-9.41c1.52-.22,2.21.29,2.28,1.76,0,.71,0,1.41,0,2.12,0,4.12,0,4.09-4,4.65-5.2.73-9.09,3.53-12.19,7.68a10.67,10.67,0,0,0-2,7c.13,8.44,0,16.88,0,25.32,0,2.59-.44,3.05-3,3.05-6.45,0-5.46.44-5.48-5.45,0-14.24,0-28.48,0-42.72,0-2.68.21-2.91,2.83-2.89,4.84,0,5.06-1.09,4.88,5.51,0,1.62-.14,3.23-.21,4.85Z" transform="translate(23 -310)"/><path class="cls-1" d="M492,371.92c-4.89,0-9.79,0-14.69,0-2.06,0-2.58-.62-2.11-2.63,1.65-7.2,6.39-11.72,13.89-12.9a16.16,16.16,0,0,1,14.09,4.22,18.3,18.3,0,0,1,5.39,9.42c.31,1.32-.14,2.05-1.69,2-5-.06-9.92,0-14.88,0Z" transform="translate(23 -310)"/><path class="cls-1" d="M316.58,357.12c6.51.34,11.29,3.5,14.05,9.16,3.4,7,3.32,14.08-.87,20.82A16.1,16.1,0,0,1,309.23,393c-6.91-3.13-10.51-11.92-9.75-18.26.51-4.31,1.6-8.27,4.47-11.71C307.3,359,311.59,357.34,316.58,357.12Z" transform="translate(23 -310)"/><path class="cls-1" d="M206.51,372.53H176c-1.56,0-2.24-.67-1.88-2.33,2.2-10.35,11.44-16.64,21.43-14,7.05,1.89,11.25,6.68,12.86,13.77C208.79,371.74,208.18,372.52,206.51,372.53Z" transform="translate(23 -310)"/><path class="cls-1" d="M80.25,378.07c0-8.93,2.58-14.69,8.43-18.61,6.68-4.48,13.85-3.64,20,2.17,5.84,5.55,6.8,12.62,5.06,19.78-1.68,6.92-6.47,12.52-14.47,13.52a16,16,0,0,1-13.82-5.09A17.61,17.61,0,0,1,80.25,378.07Z" transform="translate(23 -310)"/></svg>